<svg xmlns="http://www.w3.org/2000/svg" width="24" height="24" viewBox="0 0 24 24">
    <g fill="none" fill-rule="evenodd">
        <g fill="#B3B3B3">
            <g>
                <g>
                    <g>
                        <path d="M7.5 10.5c4.072 0 7.386 3.245 7.497 7.29L15 18H0c0-4.142 3.358-7.5 7.5-7.5zm0 1.5c-2.751 0-5.07 1.851-5.778 4.376l-.033.124H13.31l-.032-.124c-.692-2.467-2.922-4.291-5.591-4.373L7.5 12zm0-12C9.985 0 12 2.015 12 4.5S9.985 9 7.5 9 3 6.985 3 4.5 5.015 0 7.5 0zm0 1.5c-1.657 0-3 1.343-3 3s1.343 3 3 3 3-1.343 3-3-1.343-3-3-3z" transform="translate(-196 -278) translate(116 82) translate(80 196) translate(4.5 3)"/>
                    </g>
                </g>
            </g>
        </g>
    </g>
</svg>
