<svg xmlns="http://www.w3.org/2000/svg" width="24" height="24" viewBox="0 0 24 24">
    <g fill="none" fill-rule="evenodd">
        <g fill="#1A1A1A">
            <g>
                <g>
                    <g>
                        <g>
                            <path d="M.22.22c.27-.27.695-.291.99-.063l.07.063 6.97 6.969 6.97-6.97c.293-.292.767-.292 1.06 0 .27.271.291.696.063.99l-.063.071-6.969 6.97 6.97 6.97.062.07c.228.295.208.72-.063.99-.27.27-.695.291-.99.063l-.07-.063-6.97-6.969-6.97 6.97c-.293.292-.767.292-1.06 0-.27-.271-.291-.696-.063-.99l.063-.071 6.969-6.97-6.97-6.97-.062-.07C-.07.915-.05.49.22.22z" transform="translate(-729 -12) translate(393) translate(336 12) translate(3.75 3.75)"/>
                        </g>
                    </g>
                </g>
            </g>
        </g>
    </g>
</svg>
