<svg width="20" height="20" viewBox="0 0 20 20" xmlns="http://www.w3.org/2000/svg">
    <path d="M13.75 1.25c.999 0 1.815.78 1.872 1.765l.003.11v13.75c0 .999-.78 1.815-1.765 1.872l-.11.003h-7.5c-.999 0-1.815-.78-1.872-1.765l-.003-.11V3.125c0-.999.78-1.815 1.765-1.872l.11-.003h7.5zm0 1.25h-7.5a.625.625 0 0 0-.62.552l-.005.073v13.75c0 .32.241.585.552.62l.073.005h7.5c.32 0 .585-.241.62-.552l.005-.073V3.125a.625.625 0 0 0-.552-.62L13.75 2.5zm-3.125 11.875a.625.625 0 0 1 .073 1.246l-.073.004h-1.25a.625.625 0 0 1-.073-1.246l.073-.004h1.25z" fill="#6E6E6E" fill-rule="evenodd"/>
</svg>
