<svg width="20" height="20" viewBox="0 0 20 20" xmlns="http://www.w3.org/2000/svg">
    <path d="M16.25 2.5c.999 0 1.815.78 1.872 1.765l.003.11v8.75c0 .999-.78 1.815-1.765 1.872l-.11.003h-5.625v1.25H12.5a.625.625 0 0 1 .073 1.246l-.073.004h-5a.625.625 0 0 1-.073-1.246l.073-.004h1.875V15H3.75c-.999 0-1.815-.78-1.872-1.765l-.003-.11v-8.75c0-.999.78-1.815 1.765-1.872l.11-.003h12.5zm0 1.25H3.75a.625.625 0 0 0-.62.552l-.005.073v8.75c0 .32.241.585.552.62l.073.005h12.5c.32 0 .585-.241.62-.552l.005-.073v-8.75a.625.625 0 0 0-.552-.62l-.073-.005z" fill="#6E6E6E" fill-rule="evenodd"/>
</svg>
