<svg width="20" height="20" viewBox="0 0 20 20" xmlns="http://www.w3.org/2000/svg">
    <path d="M9.587 1.406a.625.625 0 0 1 .826 0c1.582 1.392 4.759 2.232 7.03 2.026.342-.03.64.218.678.55l.004.073v6.085c0 2.803-1.526 5.023-4.026 6.708a15.247 15.247 0 0 1-2.688 1.431l-.19.077-.184.072-.35.129-.164.057-.175.058-.178.054a.625.625 0 0 1-.256.018l-.084-.018-.178-.054-.34-.115-.35-.129a15.247 15.247 0 0 1-3.062-1.58c-2.434-1.64-3.944-3.789-4.022-6.488l-.003-.22V4.055c0-.366.312-.653.677-.623 2.42.2 5.424-.608 7.035-2.026zm.414 1.27-.12.09C8.193 3.975 5.706 4.684 3.445 4.712h-.26l-.06-.002v5.43c0 2.184 1.136 3.969 3.087 5.4l.19.137.197.135c.783.527 1.625.963 2.468 1.312.22.091.43.171.623.24l.188.066.122.04.31-.105c.193-.07.402-.15.623-.241a14.015 14.015 0 0 0 2.468-1.312c2.12-1.43 3.395-3.234 3.47-5.462l.004-.21V4.71l-.277.001c-2.116-.027-4.591-.7-6.282-1.815l-.2-.136-.115-.085zm3.566 4.695c.225.225.243.58.052.825l-.052.058-4.063 4.063a.625.625 0 0 1-.825.052l-.058-.052-2.188-2.188a.625.625 0 0 1 .825-.935l.059.052 1.745 1.745 3.621-3.62a.625.625 0 0 1 .884 0z" fill="#6E6E6E" fill-rule="evenodd"/>
</svg>
