<svg xmlns="http://www.w3.org/2000/svg" width="20" height="20" viewBox="0 0 20 20">
    <g fill="none" fill-rule="evenodd">
        <g fill="#3a3a3a">
            <g>
                <g>
                    <g>
                        <g>
                            <path d="M6.218.506L.593 5.773C.215 6.128 0 6.623 0 7.142v6.608c0 1.035.84 1.875 1.875 1.875H6.25v-3.75l.003-.092c.037-.64.584-1.158 1.247-1.158.69 0 1.25.56 1.25 1.25v3.75h4.375c1.036 0 1.875-.84 1.875-1.875V7.142c0-.519-.215-1.014-.593-1.369L8.782.506c-.721-.675-1.843-.675-2.564 0zm1.71.913l5.624 5.267c.126.118.198.283.198.456v6.608l-.004.073c-.036.31-.3.552-.621.552H10v-2.5c0-1.38-1.12-2.5-2.5-2.5-1.326 0-2.42 1.035-2.496 2.354L5 11.857v2.517H1.875c-.345 0-.625-.279-.625-.624V7.142c0-.173.072-.338.198-.456l5.625-5.267c.24-.225.614-.225.854 0z" transform="translate(-1380 -4720) translate(1356 4535) translate(1 174) translate(23 11) translate(2.5 1.875)"/>
                        </g>
                    </g>
                </g>
            </g>
        </g>
    </g>
</svg>
