<svg xmlns="http://www.w3.org/2000/svg" width="24" height="24" viewBox="0 0 24 24">
    <g fill="none" fill-rule="evenodd">
        <g fill="#B3B3B3">
            <g>
                <g>
                    <g>
                        <path d="M15.75 0c1.198 0 2.178.937 2.246 2.118L18 2.25v15c0 1.198-.937 2.178-2.118 2.246l-.132.004H2.25c-1.198 0-2.178-.937-2.246-2.118L0 17.25v-15C0 1.052.937.072 2.118.004L2.25 0h13.5zm0 1.5H2.25c-.385 0-.702.29-.745.663L1.5 2.25v15c0 .385.29.702.663.745L2.25 18h13.5c.385 0 .702-.29.745-.663l.005-.087v-15c0-.385-.29-.702-.663-.745L15.75 1.5zm-1.5 8.25c.385 0 .702.29.745.663L15 10.5V15c0 .385-.29.702-.663.745l-.087.005H3.75c-.385 0-.702-.29-.745-.663L3 15v-4.5c0-.385.29-.702.663-.745l.087-.005h10.5zm-.75 1.5h-9v3h9v-3zm-.75-4.5c.414 0 .75.336.75.75 0 .385-.29.702-.663.745l-.087.005h-3c-.414 0-.75-.336-.75-.75 0-.385.29-.702.663-.745l.087-.005h3zm-7.5-3C6.493 3.75 7.5 4.757 7.5 6S6.493 8.25 5.25 8.25 3 7.243 3 6s1.007-2.25 2.25-2.25zm0 1.5c-.414 0-.75.336-.75.75s.336.75.75.75S6 6.414 6 6s-.336-.75-.75-.75zm9-1.5c.414 0 .75.336.75.75 0 .385-.29.702-.663.745l-.087.005h-4.5c-.414 0-.75-.336-.75-.75 0-.385.29-.702.663-.745l.087-.005h4.5z" transform="translate(-156 -278) translate(116 82) translate(40 196) translate(3 2.25)"/>
                    </g>
                </g>
            </g>
        </g>
    </g>
</svg>
