<svg xmlns="http://www.w3.org/2000/svg" width="24" height="24" viewBox="0 0 24 24">
    <g fill="none" fill-rule="evenodd">
        <g fill="#b3b3b3">
            <g>
                <g>
                    <g>
                        <g>
                            <path d="M0 17.25c.99-2.477 1.5-5.12 1.5-7.789V7.5l.003-.21C1.614 3.245 4.928 0 9 0s7.386 3.245 7.497 7.29l.003.21v1.961c0 2.511.451 5 1.33 7.35l.17.439h-5.25C12.75 19.321 11.071 21 9 21c-2.071 0-3.75-1.679-3.75-3.75H0zm11.25 0h-4.5l.004.13c.066 1.14.976 2.05 2.114 2.116L9 19.5c1.198 0 2.178-.937 2.246-2.118l.004-.132zM9 1.5c-3.188 0-5.806 2.491-5.99 5.626l-.007.185L3 7.5v1.961c0 2.065-.285 4.116-.843 6.096l-.057.193 10.338-.001 3.461.001-.062-.214c-.512-1.822-.792-3.704-.832-5.6L15 9.46v-1.94l-.002-.19C14.908 4.09 12.25 1.5 9 1.5z" transform="translate(-1424 -545) translate(355 524) translate(1069 19) translate(0 2) translate(3 1.5)"/>
                        </g>
                    </g>
                </g>
            </g>
        </g>
    </g>
</svg>
