<svg xmlns="http://www.w3.org/2000/svg" width="20" height="20" viewBox="0 0 20 20">
    <g fill="none" fill-rule="evenodd">
        <g fill="#6E6E6E">
            <g>
                <g>
                    <g>
                        <g>
                            <g>
                                <path d="M7.5 0c3.432 0 6.325 2.305 7.217 5.451l.015.012c1.303 1.19 2.081 2.851 2.137 4.642l.003.207-.004.233c-.03.843-.219 1.661-.554 2.418l-.104.226-.01.017.246 1.735.011.12c.004.08 0 .161-.012.24l-.024.119-.026.09c-.193.584-.787.942-1.394.84l-.095-.02-1.32-.33-.164.091c-.947.511-2.01.784-3.112.784-1.822 0-3.526-.747-4.757-2.041-.033-.035-.061-.073-.085-.113-.27-.075-.534-.166-.793-.271l-.256-.11-.231-.11-2.45.512c-.612.128-1.214-.216-1.426-.785l-.03-.092-.023-.09c-.028-.136-.034-.274-.017-.41l.017-.102.511-2.45-.117-.248c-.359-.8-.575-1.66-.636-2.55l-.013-.267L0 7.5C0 3.358 3.358 0 7.5 0zm7.494 7.804l-.003.076c-.194 3.868-3.317 6.964-7.196 7.114.76.409 1.62.63 2.515.63 1.02 0 1.998-.287 2.84-.822.121-.076.263-.109.403-.093l.084.015 1.572.393-.274-1.931-.006-.079c-.001-.105.024-.209.074-.302.405-.761.62-1.61.62-2.493 0-.893-.222-1.75-.629-2.508zM7.5 1.25c-3.452 0-6.25 2.798-6.25 6.25 0 1.038.253 2.037.729 2.932.055.104.08.22.072.335l-.012.087-.556 2.665 2.665-.557c.143-.03.292-.009.421.06.895.476 1.894.728 2.931.728 3.452 0 6.25-2.798 6.25-6.25S10.952 1.25 7.5 1.25zM10 6.563c.518 0 .938.42.938.937 0 .518-.42.938-.938.938s-.938-.42-.938-.938.42-.938.938-.938zm-5 0c.518 0 .938.42.938.937 0 .518-.42.938-.938.938s-.938-.42-.938-.938.42-.938.938-.938z" transform="translate(-1137 -3856) translate(823 3785) translate(1 24) translate(31 45) translate(282 2) translate(1.25 1.25)"/>
                            </g>
                        </g>
                    </g>
                </g>
            </g>
        </g>
    </g>
</svg>
