<svg xmlns="http://www.w3.org/2000/svg" width="24" height="24" viewBox="0 0 24 24">
    <g fill="none" fill-rule="evenodd">
        <g fill="#1A1A1A">
            <g>
                <g>
                    <g>
                        <path d="M10.5 0c5.547 0 10.09 4.301 10.474 9.75H21v1.5h-.026C20.589 16.7 16.047 21 10.5 21 4.953 21 .411 16.7.026 11.25H0v-1.5h.026C.411 4.301 4.953 0 10.5 0zM6.036 11.25H1.53c.343 4.16 3.515 7.518 7.588 8.145-1.8-2.395-2.87-5.21-3.083-8.144zm13.433 0h-4.505c-.212 2.935-1.284 5.75-3.083 8.144 3.999-.615 7.13-3.863 7.567-7.918l.021-.226zm-6.005 0H7.54c.216 2.68 1.228 5.25 2.919 7.426l.041.052.041-.052c1.702-2.189 2.717-4.771 2.923-7.425zM9.12 1.607l-.188.03c-3.982.7-7.063 4.019-7.4 8.114h4.504c.204-2.817 1.2-5.524 2.872-7.854l.212-.29zm1.381.665l-.041.053C8.757 4.513 7.742 7.095 7.536 9.75h5.924c-.207-2.57-1.147-5.04-2.716-7.159l-.244-.32zm1.38-.666l.2.274c1.68 2.333 2.68 5.047 2.885 7.871h4.504c-.343-4.16-3.515-7.518-7.588-8.145z" transform="translate(-1468 -2504) translate(355 2483) translate(1073 15) translate(40 6) translate(1.5 1.5)"/>
                    </g>
                </g>
            </g>
        </g>
    </g>
</svg>
