<svg width="20" height="20" viewBox="0 0 20 20" xmlns="http://www.w3.org/2000/svg">
    <path d="M10 1.875c4.426 0 8.021 3.594 8.123 8.06V10h.002v3.125c0 .999-.78 1.815-1.765 1.872l-.11.003H15c-.999 0-1.815-.78-1.872-1.765l-.003-.11v-1.25c0-.999.78-1.815 1.765-1.872L15 10h1.873v-.053C16.777 6.16 13.734 3.125 10 3.125c-3.734 0-6.777 3.035-6.873 6.822V10H5c.999 0 1.815.78 1.872 1.765l.003.11v1.25c0 .87-.593 1.603-1.398 1.814a6.236 6.236 0 0 0 3.72 1.885l.232.025a.625.625 0 0 1-.04 1.248l-.116-.007A7.494 7.494 0 0 1 3.908 15H3.75c-.999 0-1.815-.78-1.872-1.765l-.003-.11V10h.001l.001-.064C1.98 5.469 5.574 1.875 10 1.875zM5 11.25H3.125v1.875c0 .32.241.585.552.62l.073.005H5c.32 0 .585-.241.62-.552l.005-.073v-1.25a.625.625 0 0 0-.552-.62L5 11.25zm11.875 0H15a.625.625 0 0 0-.62.552l-.005.073v1.25c0 .32.241.585.552.62l.073.005h1.25c.32 0 .585-.241.62-.552l.005-.073V11.25zM7.812 7.5a.938.938 0 1 1 0 1.875.938.938 0 0 1 0-1.875zm4.375 0a.937.937 0 1 1 0 1.875.937.937 0 0 1 0-1.875z" fill="#6E6E6E" fill-rule="evenodd"/>
</svg>
