<svg width="20" height="20" viewBox="0 0 20 20" xmlns="http://www.w3.org/2000/svg">
    <path d="M12.992 1.875a5.538 5.538 0 0 1 5.529 5.208l.007.163.22 7.392a3.394 3.394 0 0 1-2.598 3.4 3.115 3.115 0 0 1-3.617-1.861l-.051-.135-.49-1.395H7.944l-.483 1.406a3.071 3.071 0 0 1-3.354 2.039l-.136-.024-.14-.03a3.378 3.378 0 0 1-2.58-3.235v-.144l.212-7.406a5.537 5.537 0 0 1 5.373-5.376L7 1.875h5.993zm0 1.25H6.999a4.288 4.288 0 0 0-4.28 4.016l-.007.148-.211 7.406a2.128 2.128 0 0 0 1.625 2.128 1.821 1.821 0 0 0 2.113-1.072l.04-.105.628-1.827a.625.625 0 0 1 .512-.417l.079-.005h4.937c.239 0 .454.136.56.345l.03.073.636 1.813a1.865 1.865 0 0 0 2.196 1.195 2.144 2.144 0 0 0 1.642-2.027v-.121l-.22-7.392a4.287 4.287 0 0 0-4.14-4.156l-.147-.002zm.133 3.125a2.5 2.5 0 1 1 0 5 2.5 2.5 0 0 1 0-5zm-6.25 0c.32 0 .585.241.62.552l.005.073v1.25h1.25a.625.625 0 0 1 .073 1.246l-.073.004H7.5v1.25a.625.625 0 0 1-1.246.073l-.004-.073v-1.25H5a.625.625 0 0 1-.073-1.246L5 8.125h1.25v-1.25c0-.345.28-.625.625-.625zm6.25 1.25a1.25 1.25 0 1 0 0 2.5 1.25 1.25 0 0 0 0-2.5z" fill="#6E6E6E" fill-rule="evenodd"/>
</svg>
