<svg version="1.1" id="Layer_1" xmlns="http://www.w3.org/2000/svg" xmlns:xlink="http://www.w3.org/1999/xlink" x="0px" y="0px"
     width="20px" height="20px" viewBox="0 0 20 20" enable-background="new 0 0 20 20" xml:space="preserve">
<g>
	<g>
		<g>
			<g>
				<g>
					<g>
						<g>
							<path fill="#6E6E6E" d="M10,1.875c3.393,0,6.154,2.691,6.248,6.047l0.002,0.175v4.51c0.691,0.244,1.197,0.883,1.246,1.646
								l0.004,0.121v2.5c0,0.32-0.241,0.585-0.552,0.62L16.875,17.5H3.125c-0.32,0-0.585-0.241-0.62-0.552L2.5,16.875v-2.5
								c0-0.816,0.522-1.51,1.25-1.768v-4.51C3.75,4.66,6.549,1.875,10,1.875z M15.625,13.75H4.375c-0.32,0-0.585,0.241-0.62,0.552
								L3.75,14.375v1.875h12.5v-1.875c0-0.296-0.206-0.544-0.482-0.607l-0.069-0.014L15.625,13.75z M10,3.125
								c-2.71,0-4.915,2.143-4.998,4.817L5,8.097V12.5h10V8.097C15,5.352,12.762,3.125,10,3.125z M10,4.375
								c0.345,0,0.625,0.28,0.625,0.625S10.345,5.625,10,5.625c-1.388,0-2.5,1.054-2.5,2.338c0,0.345-0.28,0.625-0.625,0.625
								S6.25,8.308,6.25,7.963C6.25,5.973,7.936,4.375,10,4.375z"/>
						</g>
					</g>
				</g>
			</g>
		</g>
	</g>
</g>
</svg>
