<svg xmlns="http://www.w3.org/2000/svg" width="14" height="14" viewBox="0 0 14 14">
    <path fill="#8F8E94" fill-rule="evenodd" d="M7 0c3.866 0 7 3.134 7 7s-3.134 7-7 7-7-3.134-7-7 3.134-7 7-7zm2.744 4.099c-.295-.22-.71-.193-.978.074L7 5.94 5.234 4.173c-.263-.262-.684-.291-.978-.074l-.084.073c-.295.295-.292.768.001 1.062L5.94 7 4.173 8.766c-.262.263-.291.684-.074.978l.073.084.084.073c.295.22.71.193.978-.074L7 8.06l1.766 1.766c.263.262.684.291.978.074l.084-.073.073-.084c.22-.295.193-.71-.074-.978L8.06 7l1.766-1.766c.262-.263.291-.684.074-.978l-.073-.084z"/>
</svg>
