<svg xmlns="http://www.w3.org/2000/svg" width="30" height="30" viewBox="0 0 30 30">
    <path fill="#FEFEFE" fill-rule="evenodd" d="M27.375 8.273c-.87.385-1.803.646-2.784.763 1-.6 1.77-1.55 2.131-2.682-.936.556-1.973.959-3.078 1.176C22.76 6.59 21.501 6 20.106 6c-2.676 0-4.846 2.17-4.846 4.847 0 .38.042.75.125 1.104-4.028-.202-7.6-2.132-9.99-5.064-.417.716-.656 1.548-.656 2.437 0 1.681.855 3.165 2.156 4.034-.795-.025-1.542-.243-2.196-.606v.06c0 2.349 1.67 4.308 3.888 4.753-.407.111-.835.17-1.277.17-.312 0-.616-.03-.912-.086.617 1.925 2.407 3.326 4.528 3.365-1.659 1.3-3.749 2.075-6.02 2.075-.391 0-.777-.023-1.156-.068 2.145 1.376 4.693 2.178 7.43 2.178 8.915 0 13.79-7.385 13.79-13.79 0-.21-.004-.42-.014-.627.948-.684 1.77-1.537 2.419-2.51"/>
</svg>
