<svg xmlns="http://www.w3.org/2000/svg" xmlns:xlink="http://www.w3.org/1999/xlink" width="83" height="20" viewBox="0 0 83 20">
    <defs>
        <path id="a" d="M7.417.313c1.429 0 4.339.308 5.482 1.466.441.447.659 1 .659 1.71 0 1.106-.744 1.93-1.939 1.93-.831 0-2.332-.76-4.332-.76-1.247 0-2.184.193-2.184.989a.88.88 0 0 0 .167.508c.065.099.155.196.27.29.002 0 .004.002.005.003 1.671 1.433 9.084.887 9.084 6.866 0 3.974-3.367 5.843-7.55 5.843C4.17 19.158 0 18 0 15.474c0-1.158.737-2.157 1.932-2.157 1.142 0 2.758 1.4 5.613 1.4 1.57 0 2.312-.343 2.312-1.06 0-.342-.13-.537-.338-.747C7.831 11.278.39 11.533.39 5.71.39 2.368 3.288.313 7.418.313zM39.757.28c5.127 0 9.283 4.21 9.283 9.405 0 5.194-4.156 9.405-9.283 9.405s-9.283-4.211-9.283-9.405c0-5.194 4.156-9.405 9.283-9.405zM76.09.308c1.032 0 4.079.058 5.129.618.908.485 1.456 1.357 1.35 2.378-.138 1.35-1.262 1.907-2.595 1.766a38.975 38.975 0 0 0-3.952-.199s-1.158-.009-2.65.173a.399.399 0 0 0-.35.397v2.142h5.877c1.151 0 2.155.938 2.166 2.101-.011 1.162-1.015 2.1-2.166 2.1h-5.877v2.142a.4.4 0 0 0 .35.398c1.207.147 2.196.169 2.53.172h.36a38.728 38.728 0 0 0 3.712-.2c1.333-.14 2.457.418 2.596 1.767.105 1.022-.443 1.893-1.351 2.378-1.05.56-4.097.619-5.13.619-2.125 0-3.255-.137-4.26-.321-1.09-.204-1.82-.674-2.303-1.285-.764-.963-.921-2.274-.921-3.438V5.35l.002-.234c.021-1.103.206-2.305.919-3.203.484-.611 1.213-1.081 2.303-1.285 1.005-.184 2.135-.321 4.26-.321zm-12.02.24c.873 0 2.372.774 2.372 2.562 0 3.897-2.714 11.778-5.822 14.927-.645.653-1.468 1.001-2.302.99-.834.011-1.657-.337-2.301-.99-3.11-3.15-5.823-11.03-5.823-14.927 0-1.788 1.453-2.562 2.371-2.562 1.686 0 2.187 1.12 2.398 2.535.553 3.657 1.712 7.094 3.32 10.564h.07c1.608-3.47 2.767-6.907 3.32-10.564.211-1.414.712-2.535 2.398-2.535zM22.876.495c3.34 0 5.583.331 5.718.355 1.496.255 2.396 1.305 2.261 2.61-.134 1.304-1.222 2.014-2.51 1.878-.021-.003-1.502-.102-3.11-.168v11.71c0 1.574-1.24 2.145-2.425 2.145-1.159 0-2.292-.571-2.292-2.146V5.17c-1.61.066-3.09.165-3.111.168-1.29.135-2.376-.573-2.51-1.878-.136-1.305.824-2.378 2.26-2.61.136-.022 2.495-.355 5.719-.355zm16.882 4.431c-2.594 0-4.696 2.13-4.696 4.758 0 2.627 2.102 4.757 4.696 4.757s4.696-2.13 4.696-4.757c0-2.628-2.102-4.758-4.696-4.758z"/>
    </defs>
    <use fill="#FF5000" fill-rule="evenodd" xlink:href="#a"/>
</svg>
